<svg width="56" height="56" viewBox="0 0 56 56" fill="none" xmlns="http://www.w3.org/2000/svg">
<path d="M32.6778 4.67383C42.9871 4.67383 51.3444 13.0312 51.3444 23.3404C51.3444 30.9112 46.8374 37.4293 40.36 40.3581C37.4315 46.8348 30.914 51.3404 23.3444 51.3404C13.0351 51.3404 4.67773 42.9831 4.67773 32.6738C4.67773 25.1042 9.18345 18.5869 15.6592 15.6576C18.5889 9.18082 25.107 4.67383 32.6778 4.67383ZM23.3444 18.6738C15.6124 18.6738 9.3444 24.9418 9.3444 32.6738C9.3444 40.4057 15.6124 46.6738 23.3444 46.6738C31.0764 46.6738 37.3444 40.4057 37.3444 32.6738C37.3444 24.9418 31.0764 18.6738 23.3444 18.6738ZM25.6778 21.0072V23.3404H30.3444V28.0071H21.0111C20.3667 28.0071 19.8444 28.5295 19.8444 29.1738C19.8444 29.7466 20.2571 30.2228 20.8014 30.3218L21.0111 30.3404H25.6778C28.8994 30.3404 31.5111 32.9521 31.5111 36.1738C31.5111 39.3954 28.8994 42.0071 25.6778 42.0071V44.3404H21.0111V42.0071H16.3444V37.3404H25.6778C26.322 37.3404 26.8444 36.8182 26.8444 36.1738C26.8444 35.6012 26.4317 35.1247 25.8875 35.026L25.6778 35.0071H21.0111C17.7894 35.0071 15.1777 32.3954 15.1777 29.1738C15.1777 25.9521 17.7894 23.3404 21.0111 23.3404V21.0072H25.6778ZM32.6778 9.3405C28.5163 9.3405 24.7787 11.1562 22.2145 14.0386C22.5895 14.0184 22.9656 14.0072 23.3444 14.0072C33.6538 14.0072 42.0111 22.3645 42.0111 32.6738C42.0111 33.0534 41.9997 33.4305 41.9775 33.8043C44.8615 31.2406 46.6778 27.5026 46.6778 23.3404C46.6778 15.6085 40.4097 9.3405 32.6778 9.3405Z" fill="white"/>
</svg>
