<svg width="57" height="77" viewBox="0 0 57 77" fill="none" xmlns="http://www.w3.org/2000/svg">
<path d="M0 5.08789C0 2.32647 2.23858 0.0878906 5 0.0878906H52C54.7614 0.0878906 57 2.32647 57 5.08789V71.0879C57 73.8493 54.7614 76.0879 52 76.0879H0V5.08789Z" fill="#1F262E"/>
<g clip-path="url(#clip0_42_206)">
<path fill-rule="evenodd" clip-rule="evenodd" d="M33.4063 36.307C33.7457 36.6468 33.9363 37.1075 33.9363 37.5878C33.9363 38.0681 33.7457 38.5288 33.4063 38.8687L26.5719 45.7054C26.2319 46.0453 25.7708 46.2361 25.2901 46.236C24.8093 46.2359 24.3483 46.0448 24.0085 45.7048C23.6686 45.3648 23.4777 44.9037 23.4778 44.4229C23.478 43.9422 23.669 43.4812 24.0091 43.1413L29.5626 37.5878L24.0091 32.0343C23.6787 31.6926 23.4958 31.2349 23.4997 30.7596C23.5036 30.2844 23.694 29.8297 24.0299 29.4935C24.3658 29.1573 24.8203 28.9665 25.2956 28.9621C25.7708 28.9578 26.2287 29.1402 26.5707 29.4702L33.4075 36.3058L33.4063 36.307Z" fill="white"/>
</g>
<defs>
<clipPath id="clip0_42_206">
<rect width="29" height="29" fill="white" transform="translate(14 23.0879)"/>
</clipPath>
</defs>
</svg>
