<svg width="27" height="28" viewBox="0 0 27 28" fill="none" xmlns="http://www.w3.org/2000/svg">
<path d="M17.688 14.0412C17.688 14.8745 17.4409 15.6891 16.9779 16.3819C16.515 17.0748 15.857 17.6148 15.0871 17.9337C14.3173 18.2526 13.4701 18.336 12.6529 18.1735C11.8356 18.0109 11.0849 17.6096 10.4956 17.0204C9.90641 16.4312 9.50514 15.6804 9.34258 14.8632C9.18001 14.0459 9.26344 13.1988 9.58233 12.4289C9.90122 11.659 10.4412 11.001 11.1341 10.5381C11.8269 10.0751 12.6415 9.82803 13.4748 9.82803C14.5912 9.8315 15.6608 10.2765 16.4502 11.0659C17.2395 11.8553 17.6845 12.9249 17.688 14.0412ZM26.641 8.24808V19.8344C26.641 21.7898 25.8642 23.6652 24.4815 25.0479C23.0988 26.4306 21.2234 27.2074 19.2679 27.2074H7.68168C5.72621 27.2074 3.85084 26.4306 2.46812 25.0479C1.0854 23.6652 0.308594 21.7898 0.308594 19.8344V8.24808C0.308594 6.29262 1.0854 4.41725 2.46812 3.03453C3.85084 1.6518 5.72621 0.875 7.68168 0.875H19.2679C21.2234 0.875 23.0988 1.6518 24.4815 3.03453C25.8642 4.41725 26.641 6.29262 26.641 8.24808ZM19.7946 14.0412C19.7946 12.7913 19.4239 11.5694 18.7295 10.5301C18.0351 9.49085 17.0481 8.68083 15.8933 8.2025C14.7385 7.72417 13.4678 7.59902 12.2419 7.84287C11.016 8.08672 9.88989 8.68862 9.00605 9.57246C8.12221 10.4563 7.52031 11.5824 7.27646 12.8083C7.03261 14.0342 7.15776 15.3049 7.63609 16.4597C8.11442 17.6145 8.92444 18.6015 9.96373 19.2959C11.003 19.9904 12.2249 20.361 13.4748 20.361C15.1509 20.361 16.7584 19.6952 17.9436 18.51C19.1288 17.3248 19.7946 15.7173 19.7946 14.0412ZM21.9012 7.19478C21.9012 6.8823 21.8085 6.57683 21.6349 6.31701C21.4613 6.05719 21.2146 5.85469 20.9259 5.7351C20.6372 5.61552 20.3195 5.58423 20.013 5.6452C19.7065 5.70616 19.425 5.85663 19.2041 6.07759C18.9831 6.29855 18.8326 6.58007 18.7717 6.88655C18.7107 7.19303 18.742 7.51071 18.8616 7.7994C18.9811 8.0881 19.1837 8.33486 19.4435 8.50846C19.7033 8.68207 20.0088 8.77473 20.3212 8.77473C20.7403 8.77473 21.1421 8.60827 21.4384 8.31198C21.7347 8.01568 21.9012 7.61381 21.9012 7.19478Z" fill="#D9A831"/>
</svg>
