<svg width="29" height="29" viewBox="0 0 29 29" fill="none" xmlns="http://www.w3.org/2000/svg">
<path d="M14.6745 0.078125C6.96037 0.078125 0.707031 6.33146 0.707031 14.0456C0.707031 21.7597 6.96037 28.013 14.6745 28.013C22.3886 28.013 28.6419 21.7597 28.6419 14.0456C28.6419 6.33146 22.3886 0.078125 14.6745 0.078125ZM11.2554 19.8348H8.42695V10.7327H11.2554V19.8348ZM9.82369 9.61526C8.93036 9.61526 8.35275 8.98236 8.35275 8.19961C8.35275 7.40084 8.94782 6.78686 9.86007 6.78686C10.7723 6.78686 11.331 7.40084 11.3485 8.19961C11.3485 8.98236 10.7723 9.61526 9.82369 9.61526ZM21.5854 19.8348H18.757V14.7905C18.757 13.6164 18.3467 12.819 17.3239 12.819C16.5426 12.819 16.0785 13.3588 15.8733 13.8782C15.7977 14.063 15.7788 14.3249 15.7788 14.5853V19.8333H12.9489V13.6353C12.9489 12.499 12.9125 11.5489 12.8747 10.7312H15.3321L15.4616 11.9955H15.5183C15.8908 11.4019 16.803 10.5261 18.3293 10.5261C20.1901 10.5261 21.5854 11.7729 21.5854 14.4529V19.8348Z" fill="#D9A831"/>
</svg>
