<svg width="24" height="25" viewBox="0 0 24 25" fill="none" xmlns="http://www.w3.org/2000/svg">
<path d="M11 17.0879H13V11.0879H11V17.0879ZM12 9.08789C12.2833 9.08789 12.521 8.99189 12.713 8.79989C12.905 8.60789 13.0007 8.37056 13 8.08789C12.9993 7.80522 12.9033 7.56789 12.712 7.37589C12.5207 7.18389 12.2833 7.08789 12 7.08789C11.7167 7.08789 11.4793 7.18389 11.288 7.37589C11.0967 7.56789 11.0007 7.80522 11 8.08789C10.9993 8.37056 11.0953 8.60822 11.288 8.80089C11.4807 8.99356 11.718 9.08922 12 9.08789ZM12 22.0879C10.6167 22.0879 9.31667 21.8252 8.1 21.2999C6.88334 20.7746 5.825 20.0622 4.925 19.1629C4.025 18.2636 3.31267 17.2052 2.788 15.9879C2.26333 14.7706 2.00067 13.4706 2 12.0879C1.99933 10.7052 2.262 9.40522 2.788 8.18789C3.314 6.97056 4.02633 5.91222 4.925 5.01289C5.82367 4.11356 6.882 3.40122 8.1 2.87589C9.318 2.35056 10.618 2.08789 12 2.08789C13.382 2.08789 14.682 2.35056 15.9 2.87589C17.118 3.40122 18.1763 4.11356 19.075 5.01289C19.9737 5.91222 20.6863 6.97056 21.213 8.18789C21.7397 9.40522 22.002 10.7052 22 12.0879C21.998 13.4706 21.7353 14.7706 21.212 15.9879C20.6887 17.2052 19.9763 18.2636 19.075 19.1629C18.1737 20.0622 17.1153 20.7749 15.9 21.3009C14.6847 21.8269 13.3847 22.0892 12 22.0879ZM12 20.0879C14.2333 20.0879 16.125 19.3129 17.675 17.7629C19.225 16.2129 20 14.3212 20 12.0879C20 9.85456 19.225 7.96289 17.675 6.41289C16.125 4.86289 14.2333 4.08789 12 4.08789C9.76667 4.08789 7.875 4.86289 6.325 6.41289C4.775 7.96289 4 9.85456 4 12.0879C4 14.3212 4.775 16.2129 6.325 17.7629C7.875 19.3129 9.76667 20.0879 12 20.0879Z" fill="#FF4747"/>
</svg>
