<svg width="57" height="56" viewBox="0 0 57 56" fill="none" xmlns="http://www.w3.org/2000/svg">
<path d="M42.4051 38.7729L52.398 48.7658L49.0982 52.0656L39.1053 42.0727C35.5122 44.9473 30.9554 46.667 25.9994 46.667C14.4074 46.667 4.99939 37.259 4.99939 25.667C4.99939 14.075 14.4074 4.66699 25.9994 4.66699C37.5914 4.66699 46.9994 14.075 46.9994 25.667C46.9994 30.623 45.2797 35.1798 42.4051 38.7729ZM37.7237 37.0415C40.5769 34.1011 42.3327 30.0901 42.3327 25.667C42.3327 16.6428 35.0236 9.33366 25.9994 9.33366C16.9752 9.33366 9.66606 16.6428 9.66606 25.667C9.66606 34.6912 16.9752 42.0003 25.9994 42.0003C30.4225 42.0003 34.4335 40.2445 37.3739 37.3913L37.7237 37.0415ZM28.7478 16.7449C27.1273 17.4766 25.9994 19.1067 25.9994 21.0003C25.9994 23.5777 28.0887 25.667 30.6661 25.667C32.5596 25.667 34.1899 24.5391 34.9216 22.9186C35.1888 23.7875 35.3327 24.7103 35.3327 25.667C35.3327 30.8216 31.154 35.0003 25.9994 35.0003C20.8447 35.0003 16.6661 30.8216 16.6661 25.667C16.6661 20.5123 20.8447 16.3337 25.9994 16.3337C26.9561 16.3337 27.8789 16.4776 28.7478 16.7449Z" fill="white"/>
</svg>
