<svg width="57" height="56" viewBox="0 0 57 56" fill="none" xmlns="http://www.w3.org/2000/svg">
<path d="M49.666 27.1739V49.0003C49.666 50.289 48.6213 51.3337 47.3326 51.3337H9.99931C8.71066 51.3337 7.66598 50.289 7.66598 49.0003V27.1739C6.2138 25.5286 5.33264 23.3673 5.33264 21.0003V7.00033C5.33264 5.71167 6.37732 4.66699 7.66598 4.66699H49.666C50.9547 4.66699 51.9993 5.71167 51.9993 7.00033V21.0003C51.9993 23.3673 51.1182 25.5286 49.666 27.1739ZM44.9993 30.0397C44.2536 30.2315 43.4717 30.3337 42.666 30.3337C39.8783 30.3337 37.3761 29.1115 35.666 27.1739C33.9559 29.1115 31.4536 30.3337 28.666 30.3337C25.8783 30.3337 23.3762 29.1115 21.666 27.1739C19.9558 29.1115 17.4536 30.3337 14.666 30.3337C13.8603 30.3337 13.0784 30.2315 12.3326 30.0397V46.667H44.9993V30.0397ZM33.3326 21.0003C33.3326 19.7117 34.3773 18.667 35.666 18.667C36.9547 18.667 37.9993 19.7117 37.9993 21.0003C37.9993 23.5777 40.0886 25.667 42.666 25.667C45.2434 25.667 47.3326 23.5777 47.3326 21.0003V9.33366H9.99931V21.0003C9.99931 23.5777 12.0886 25.667 14.666 25.667C17.2433 25.667 19.3326 23.5777 19.3326 21.0003C19.3326 19.7117 20.3773 18.667 21.666 18.667C22.9546 18.667 23.9993 19.7117 23.9993 21.0003C23.9993 23.5777 26.0886 25.667 28.666 25.667C31.2434 25.667 33.3326 23.5777 33.3326 21.0003Z" fill="white"/>
</svg>
