<svg width="29" height="29" viewBox="0 0 29 29" fill="none" xmlns="http://www.w3.org/2000/svg">
<circle cx="14.044" cy="14.044" r="14.044" fill="#D9A831"/>
<path d="M12.1056 19.8184C13.3939 19.8184 14.4382 18.8961 14.4382 17.4858V7.02344H17.2357C17.0788 8.93148 18.9756 10.7746 21.0674 10.7324V13.363C19.2785 13.363 17.7572 12.6066 17.2278 12.1868V17.4858C17.2278 19.8184 15.3927 22.4636 12.1056 22.4636C8.81844 22.4636 7.02344 19.8184 7.02344 17.4858C7.02344 14.1935 10.5075 12.284 12.8151 12.7507V15.4301C12.699 15.3891 12.3997 15.3284 12.1447 15.3284C10.8457 15.2805 9.77294 16.334 9.77294 17.4858C9.77294 18.7741 10.8173 19.8184 12.1056 19.8184Z" fill="white"/>
</svg>
